<svg width="452" height="102" viewBox="0 0 452 102" fill="none" xmlns="http://www.w3.org/2000/svg">
<path d="M13.8864 40.4545V87H4.04545V40.4545H13.8864ZM50.8466 62.0455L41.983 62.5909C41.8314 61.8333 41.5057 61.1515 41.0057 60.5455C40.5057 59.9242 39.8466 59.4318 39.0284 59.0682C38.2254 58.6894 37.2633 58.5 36.142 58.5C34.642 58.5 33.3769 58.8182 32.3466 59.4545C31.3163 60.0758 30.8011 60.9091 30.8011 61.9545C30.8011 62.7879 31.1345 63.4924 31.8011 64.0682C32.4678 64.6439 33.6117 65.1061 35.233 65.4545L41.5511 66.7273C44.9451 67.4242 47.4754 68.5455 49.142 70.0909C50.8087 71.6364 51.642 73.6667 51.642 76.1818C51.642 78.4697 50.9678 80.4773 49.6193 82.2045C48.286 83.9318 46.4527 85.2803 44.1193 86.25C41.8011 87.2045 39.1269 87.6818 36.0966 87.6818C31.4754 87.6818 27.7936 86.7197 25.0511 84.7955C22.3239 82.8561 20.7254 80.2197 20.2557 76.8864L29.7784 76.3864C30.0663 77.7955 30.7633 78.8712 31.8693 79.6136C32.9754 80.3409 34.392 80.7045 36.1193 80.7045C37.8163 80.7045 39.1799 80.3788 40.2102 79.7273C41.2557 79.0606 41.786 78.2045 41.8011 77.1591C41.786 76.2803 41.4148 75.5606 40.6875 75C39.9602 74.4242 38.839 73.9848 37.3239 73.6818L31.2784 72.4773C27.8693 71.7955 25.3314 70.6136 23.6648 68.9318C22.0133 67.25 21.1875 65.1061 21.1875 62.5C21.1875 60.2576 21.7936 58.3258 23.0057 56.7045C24.233 55.0833 25.9527 53.8333 28.1648 52.9545C30.392 52.0758 32.9981 51.6364 35.983 51.6364C40.392 51.6364 43.8617 52.5682 46.392 54.4318C48.9375 56.2955 50.4223 58.8333 50.8466 62.0455ZM86.7841 62.0455L77.9205 62.5909C77.7689 61.8333 77.4432 61.1515 76.9432 60.5455C76.4432 59.9242 75.7841 59.4318 74.9659 59.0682C74.1629 58.6894 73.2008 58.5 72.0795 58.5C70.5795 58.5 69.3144 58.8182 68.2841 59.4545C67.2538 60.0758 66.7386 60.9091 66.7386 61.9545C66.7386 62.7879 67.072 63.4924 67.7386 64.0682C68.4053 64.6439 69.5492 65.1061 71.1705 65.4545L77.4886 66.7273C80.8826 67.4242 83.4129 68.5455 85.0795 70.0909C86.7462 71.6364 87.5795 73.6667 87.5795 76.1818C87.5795 78.4697 86.9053 80.4773 85.5568 82.2045C84.2235 83.9318 82.3902 85.2803 80.0568 86.25C77.7386 87.2045 75.0644 87.6818 72.0341 87.6818C67.4129 87.6818 63.7311 86.7197 60.9886 84.7955C58.2614 82.8561 56.6629 80.2197 56.1932 76.8864L65.7159 76.3864C66.0038 77.7955 66.7008 78.8712 67.8068 79.6136C68.9129 80.3409 70.3295 80.7045 72.0568 80.7045C73.7538 80.7045 75.1174 80.3788 76.1477 79.7273C77.1932 79.0606 77.7235 78.2045 77.7386 77.1591C77.7235 76.2803 77.3523 75.5606 76.625 75C75.8977 74.4242 74.7765 73.9848 73.2614 73.6818L67.2159 72.4773C63.8068 71.7955 61.2689 70.6136 59.6023 68.9318C57.9508 67.25 57.125 65.1061 57.125 62.5C57.125 60.2576 57.7311 58.3258 58.9432 56.7045C60.1705 55.0833 61.8902 53.8333 64.1023 52.9545C66.3295 52.0758 68.9356 51.6364 71.9205 51.6364C76.3295 51.6364 79.7992 52.5682 82.3295 54.4318C84.875 56.2955 86.3598 58.8333 86.7841 62.0455ZM116.062 72.1364V52.0909H125.744V87H116.449V80.6591H116.085C115.297 82.7045 113.987 84.3485 112.153 85.5909C110.335 86.8333 108.116 87.4545 105.494 87.4545C103.161 87.4545 101.108 86.9242 99.3352 85.8636C97.5625 84.803 96.1761 83.2955 95.1761 81.3409C94.1913 79.3864 93.6913 77.0455 93.6761 74.3182V52.0909H103.358V72.5909C103.373 74.6515 103.926 76.2803 105.017 77.4773C106.108 78.6742 107.57 79.2727 109.403 79.2727C110.57 79.2727 111.661 79.0076 112.676 78.4773C113.691 77.9318 114.509 77.1288 115.131 76.0682C115.767 75.0076 116.078 73.697 116.062 72.1364ZM149.398 87.6818C145.807 87.6818 142.716 86.9545 140.125 85.5C137.549 84.0303 135.564 81.9545 134.17 79.2727C132.777 76.5758 132.08 73.3864 132.08 69.7045C132.08 66.1136 132.777 62.9621 134.17 60.25C135.564 57.5379 137.527 55.4242 140.057 53.9091C142.602 52.3939 145.587 51.6364 149.011 51.6364C151.314 51.6364 153.458 52.0076 155.443 52.75C157.443 53.4773 159.186 54.5758 160.67 56.0455C162.17 57.5152 163.337 59.3636 164.17 61.5909C165.004 63.803 165.42 66.3939 165.42 69.3636V72.0227H135.943V66.0227H156.307C156.307 64.6288 156.004 63.3939 155.398 62.3182C154.792 61.2424 153.951 60.4015 152.875 59.7955C151.814 59.1742 150.58 58.8636 149.17 58.8636C147.701 58.8636 146.398 59.2045 145.261 59.8864C144.14 60.553 143.261 61.4545 142.625 62.5909C141.989 63.7121 141.663 64.9621 141.648 66.3409V72.0455C141.648 73.7727 141.966 75.2652 142.602 76.5227C143.254 77.7803 144.17 78.75 145.352 79.4318C146.534 80.1136 147.936 80.4545 149.557 80.4545C150.633 80.4545 151.617 80.303 152.511 80C153.405 79.697 154.17 79.2424 154.807 78.6364C155.443 78.0303 155.928 77.2879 156.261 76.4091L165.216 77C164.761 79.1515 163.83 81.0303 162.42 82.6364C161.027 84.2273 159.223 85.4697 157.011 86.3636C154.814 87.2424 152.277 87.6818 149.398 87.6818Z" fill="#FF9A00"/>
<path d="M267.295 53.8409C267.114 52.0076 266.333 50.5833 264.955 49.5682C263.576 48.553 261.705 48.0455 259.341 48.0455C257.735 48.0455 256.379 48.2727 255.273 48.7273C254.167 49.1667 253.318 49.7803 252.727 50.5682C252.152 51.3561 251.864 52.25 251.864 53.25C251.833 54.0833 252.008 54.8106 252.386 55.4318C252.78 56.053 253.318 56.5909 254 57.0455C254.682 57.4848 255.47 57.8712 256.364 58.2045C257.258 58.5227 258.212 58.7955 259.227 59.0227L263.409 60.0227C265.439 60.4773 267.303 61.0833 269 61.8409C270.697 62.5985 272.167 63.5303 273.409 64.6364C274.652 65.7424 275.614 67.0455 276.295 68.5455C276.992 70.0455 277.348 71.7652 277.364 73.7045C277.348 76.553 276.621 79.0227 275.182 81.1136C273.758 83.1894 271.697 84.803 269 85.9545C266.318 87.0909 263.083 87.6591 259.295 87.6591C255.538 87.6591 252.265 87.0833 249.477 85.9318C246.705 84.7803 244.538 83.0758 242.977 80.8182C241.432 78.5455 240.621 75.7348 240.545 72.3864H250.068C250.174 73.947 250.621 75.25 251.409 76.2955C252.212 77.3258 253.28 78.1061 254.614 78.6364C255.962 79.1515 257.485 79.4091 259.182 79.4091C260.848 79.4091 262.295 79.1667 263.523 78.6818C264.765 78.197 265.727 77.5227 266.409 76.6591C267.091 75.7955 267.432 74.803 267.432 73.6818C267.432 72.6364 267.121 71.7576 266.5 71.0455C265.894 70.3333 265 69.7273 263.818 69.2273C262.652 68.7273 261.22 68.2727 259.523 67.8636L254.455 66.5909C250.53 65.6364 247.432 64.1439 245.159 62.1136C242.886 60.0833 241.758 57.3485 241.773 53.9091C241.758 51.0909 242.508 48.6288 244.023 46.5227C245.553 44.4167 247.652 42.7727 250.318 41.5909C252.985 40.4091 256.015 39.8182 259.409 39.8182C262.864 39.8182 265.879 40.4091 268.455 41.5909C271.045 42.7727 273.061 44.4167 274.5 46.5227C275.939 48.6288 276.682 51.0682 276.727 53.8409H267.295ZM299.574 87.6818C296.044 87.6818 292.991 86.9318 290.415 85.4318C287.854 83.9167 285.877 81.8106 284.483 79.1136C283.089 76.4015 282.392 73.2576 282.392 69.6818C282.392 66.0758 283.089 62.9242 284.483 60.2273C285.877 57.5152 287.854 55.4091 290.415 53.9091C292.991 52.3939 296.044 51.6364 299.574 51.6364C303.104 51.6364 306.15 52.3939 308.71 53.9091C311.286 55.4091 313.271 57.5152 314.665 60.2273C316.059 62.9242 316.756 66.0758 316.756 69.6818C316.756 73.2576 316.059 76.4015 314.665 79.1136C313.271 81.8106 311.286 83.9167 308.71 85.4318C306.15 86.9318 303.104 87.6818 299.574 87.6818ZM299.619 80.1818C301.225 80.1818 302.566 79.7273 303.642 78.8182C304.718 77.8939 305.528 76.6364 306.074 75.0455C306.634 73.4545 306.915 71.6439 306.915 69.6136C306.915 67.5833 306.634 65.7727 306.074 64.1818C305.528 62.5909 304.718 61.3333 303.642 60.4091C302.566 59.4848 301.225 59.0227 299.619 59.0227C297.998 59.0227 296.634 59.4848 295.528 60.4091C294.438 61.3333 293.612 62.5909 293.051 64.1818C292.506 65.7727 292.233 67.5833 292.233 69.6136C292.233 71.6439 292.506 73.4545 293.051 75.0455C293.612 76.6364 294.438 77.8939 295.528 78.8182C296.634 79.7273 297.998 80.1818 299.619 80.1818ZM332.733 40.4545V87H323.051V40.4545H332.733ZM373.034 52.0909L360.83 87H349.92L337.716 52.0909H347.943L355.193 77.0682H355.557L362.784 52.0909H373.034ZM392.773 87.6818C389.182 87.6818 386.091 86.9545 383.5 85.5C380.924 84.0303 378.939 81.9545 377.545 79.2727C376.152 76.5758 375.455 73.3864 375.455 69.7045C375.455 66.1136 376.152 62.9621 377.545 60.25C378.939 57.5379 380.902 55.4242 383.432 53.9091C385.977 52.3939 388.962 51.6364 392.386 51.6364C394.689 51.6364 396.833 52.0076 398.818 52.75C400.818 53.4773 402.561 54.5758 404.045 56.0455C405.545 57.5152 406.712 59.3636 407.545 61.5909C408.379 63.803 408.795 66.3939 408.795 69.3636V72.0227H379.318V66.0227H399.682C399.682 64.6288 399.379 63.3939 398.773 62.3182C398.167 61.2424 397.326 60.4015 396.25 59.7955C395.189 59.1742 393.955 58.8636 392.545 58.8636C391.076 58.8636 389.773 59.2045 388.636 59.8864C387.515 60.553 386.636 61.4545 386 62.5909C385.364 63.7121 385.038 64.9621 385.023 66.3409V72.0455C385.023 73.7727 385.341 75.2652 385.977 76.5227C386.629 77.7803 387.545 78.75 388.727 79.4318C389.909 80.1136 391.311 80.4545 392.932 80.4545C394.008 80.4545 394.992 80.303 395.886 80C396.78 79.697 397.545 79.2424 398.182 78.6364C398.818 78.0303 399.303 77.2879 399.636 76.4091L408.591 77C408.136 79.1515 407.205 81.0303 405.795 82.6364C404.402 84.2273 402.598 85.4697 400.386 86.3636C398.189 87.2424 395.652 87.6818 392.773 87.6818ZM427.977 87.5682C425.326 87.5682 422.924 86.8864 420.773 85.5227C418.636 84.1439 416.939 82.1212 415.682 79.4545C414.439 76.7727 413.818 73.4848 413.818 69.5909C413.818 65.5909 414.462 62.2652 415.75 59.6136C417.038 56.947 418.75 54.9545 420.886 53.6364C423.038 52.303 425.394 51.6364 427.955 51.6364C429.909 51.6364 431.538 51.9697 432.841 52.6364C434.159 53.2879 435.22 54.1061 436.023 55.0909C436.841 56.0606 437.462 57.0152 437.886 57.9545H438.182V40.4545H447.841V87H438.295V81.4091H437.886C437.432 82.3788 436.788 83.3409 435.955 84.2955C435.136 85.2348 434.068 86.0152 432.75 86.6364C431.447 87.2576 429.856 87.5682 427.977 87.5682ZM431.045 79.8636C432.606 79.8636 433.924 79.4394 435 78.5909C436.091 77.7273 436.924 76.5227 437.5 74.9773C438.091 73.4318 438.386 71.6212 438.386 69.5455C438.386 67.4697 438.098 65.6667 437.523 64.1364C436.947 62.6061 436.114 61.4242 435.023 60.5909C433.932 59.7576 432.606 59.3409 431.045 59.3409C429.455 59.3409 428.114 59.7727 427.023 60.6364C425.932 61.5 425.106 62.697 424.545 64.2273C423.985 65.7576 423.705 67.5303 423.705 69.5455C423.705 71.5758 423.985 73.3712 424.545 74.9318C425.121 76.4773 425.947 77.6894 427.023 78.5682C428.114 79.4318 429.455 79.8636 431.045 79.8636Z" fill="#202B3C"/>
<path d="M177.5 53.5H168C183.5 69 185.5 71 197 87L208 85C231.5 48 247 27.5 277.5 0H271.5C259 10 239 27 201.5 76.5C190.5 64 189 63.5 177.5 53.5Z" fill="#006EC1"/>
</svg>
